<svg width="405" height="656" viewBox="0 0 405 656" fill="none" xmlns="http://www.w3.org/2000/svg">
<path d="M87.5373 0.0395813C39.1917 0.0395792 -9.34214e-06 39.2224 -1.14549e-05 87.5572C-1.35677e-05 135.892 39.1917 175.075 87.5373 175.075L87.5373 132.174C62.8905 132.174 42.9103 112.198 42.9103 87.5572C42.9103 62.9163 62.8905 42.9399 87.5373 42.9399L87.5373 0.0395813Z" fill="#A39382"/>
<path d="M317.015 655.629C365.36 655.629 404.552 616.446 404.552 568.111C404.552 519.776 365.36 480.594 317.015 480.594L317.015 523.494C341.661 523.494 361.642 543.47 361.642 568.111C361.642 592.752 341.661 612.728 317.015 612.728L317.015 655.629Z" fill="#007367"/>
<path d="M229.147 87.5374C229.147 135.883 268.339 175.075 316.684 175.075C365.03 175.075 404.222 135.883 404.222 87.5374C404.222 39.1917 365.03 2.56009e-06 316.684 -3.77966e-06L316.684 87.5374L229.147 87.5374Z" fill="#AEDC91"/>
<path d="M405 332.002C405 331.99 405 331.976 405 331.963C405 283.628 365.808 244.445 317.463 244.445C269.117 244.445 229.925 283.628 229.925 331.963C229.925 380.298 269.117 419.481 317.463 419.481L317.463 376.581C292.816 376.581 272.836 356.604 272.836 331.963C272.836 307.322 292.816 287.346 317.463 287.346C342.109 287.346 362.089 307.322 362.089 331.963C362.089 331.976 362.089 331.99 362.089 332.002L405 332.002Z" fill="#007367"/>
<path d="M175.075 332.042C175.075 332.029 175.075 332.015 175.075 332.003C175.075 283.668 135.883 244.485 87.5372 244.485L87.5372 287.385C112.184 287.385 132.164 307.362 132.164 332.003C132.164 332.015 132.164 332.029 132.164 332.042L175.075 332.042Z" fill="#A39382"/>
</svg>
