<svg width="566" height="155" viewBox="0 0 566 155" fill="none" xmlns="http://www.w3.org/2000/svg">
<path fill-rule="evenodd" clip-rule="evenodd" d="M55.1157 77.0463C39.2885 77.0463 26.458 89.8769 26.458 105.704V154.104H0.984375V105.704C0.984375 75.8082 25.2198 51.5728 55.1157 51.5728H62.121V77.0463H55.1157Z" fill="#A9E0A4"/>
<path d="M72.561 103.393C72.561 131.4 95.265 154.104 123.272 154.104V129.246C108.994 129.246 97.4192 117.671 97.4192 103.393C97.4192 89.1152 108.994 77.5406 123.272 77.5406C132.841 77.5406 141.195 82.7395 145.666 90.4669H123.272V115.822H172.448C173.45 111.845 173.983 107.681 173.983 103.393C173.983 75.3864 151.279 52.6824 123.272 52.6824C95.265 52.6824 72.561 75.3864 72.561 103.393Z" fill="#A9E0A4"/>
<path fill-rule="evenodd" clip-rule="evenodd" d="M209.897 0.62561V102.838C209.897 117.083 221.444 128.63 235.689 128.63C249.933 128.63 261.481 117.083 261.481 102.838C261.481 88.5938 249.933 77.0463 235.689 77.0463H229.321V51.5728H235.689C264.002 51.5728 286.954 74.5251 286.954 102.838C286.954 131.152 264.002 154.104 235.689 154.104C207.376 154.104 184.423 131.152 184.423 102.838V0.62561H209.897Z" fill="#A9E0A4"/>
<path d="M348.338 128.629C361.938 128.457 373.175 117.267 373.175 103.158C373.175 88.9382 361.762 77.6841 348.02 77.6841C334.483 77.6841 323.207 88.6037 322.872 102.521H297.395C297.734 74.677 320.27 52.2106 348.02 52.2106C375.981 52.2106 398.649 75.0204 398.649 103.158C398.649 131.188 376.153 153.931 348.338 154.104V128.629Z" fill="#A9E0A4"/>
<path d="M409.093 102.52C409.09 102.732 409.089 102.944 409.089 103.157C409.089 131.294 431.756 154.104 459.718 154.104C487.679 154.104 510.346 131.294 510.346 103.157C510.346 75.1263 487.851 52.383 460.036 52.2106V77.6852C473.636 77.8574 484.873 89.0472 484.873 103.157C484.873 117.376 473.46 128.63 459.718 128.63C445.975 128.63 434.562 117.376 434.562 103.157C434.562 102.944 434.565 102.731 434.57 102.52H409.093Z" fill="#A9E0A4"/>
<path d="M546.261 100.703C546.261 113.418 554.541 124.198 566.003 127.947V154.104C540.349 149.853 520.787 127.563 520.787 100.703V28.0127L546.261 28.0127V51.9949H566.003V77.4685H546.261V100.703Z" fill="#A9E0A4"/>
</svg>
