<svg width="483" height="130" viewBox="0 0 483 130" fill="none" xmlns="http://www.w3.org/2000/svg">
<path d="M42.6934 43.9612C51.6074 43.9612 59.8794 46.7269 66.7085 51.4519L55.9587 70.0711C52.3183 67.0885 47.6898 65.313 42.6934 65.313C31.1748 65.3133 21.6085 74.7464 21.6082 86.6649H21.6107V129.369H0.256348V86.6649C0.256641 63.0804 19.2563 43.9614 42.6934 43.9612Z" fill="#AEDC91"/>
<path d="M67.1279 86.8619C67.1279 110.337 86.1586 129.368 109.634 129.368V108.532C97.6662 108.532 87.9643 98.8298 87.9643 86.8619C87.9643 74.894 97.6662 65.1921 109.634 65.1921C117.655 65.1921 124.658 69.5499 128.405 76.027H109.634V97.2801H150.854C151.694 93.9465 152.14 90.4563 152.14 86.8619C152.14 63.3864 133.11 44.3557 109.634 44.3557C86.1586 44.3557 67.1279 63.3864 67.1279 86.8619Z" fill="#AEDC91"/>
<path fill-rule="evenodd" clip-rule="evenodd" d="M182.465 0.721191V86.3967C182.465 98.3366 192.145 108.016 204.085 108.016C216.024 108.016 225.704 98.3366 225.704 86.3967C225.704 74.4569 216.024 64.7777 204.085 64.7777H198.746V43.4255H204.085C227.817 43.4255 247.056 62.6644 247.056 86.3967C247.056 110.129 227.817 129.368 204.085 129.368C180.352 129.368 161.113 110.129 161.113 86.3967V0.721191H182.465Z" fill="#AEDC91"/>
<path d="M296.391 107.837C297.052 107.91 297.722 107.953 298.398 107.961V129.368C294.92 129.346 291.542 128.9 288.31 128.086L296.391 107.837Z" fill="#AEDC91"/>
<path d="M288.599 105.444C289.207 105.77 289.836 106.069 290.485 106.337L282.551 126.219C279.282 124.891 276.27 123.197 273.538 121.207L288.599 105.444Z" fill="#AEDC91"/>
<path d="M282.232 100.27C282.685 100.815 283.168 101.342 283.684 101.847L268.894 117.323C266.329 114.841 264.147 112.109 262.346 109.204L282.232 100.27Z" fill="#AEDC91"/>
<path d="M298.733 43.959C322.318 43.9594 341.437 63.0792 341.437 86.664C341.437 92.7718 340.154 98.5799 337.844 103.834L318.367 95.0616C319.471 92.4841 320.084 89.6456 320.085 86.664C320.085 74.872 310.525 65.3119 298.733 65.3115C286.941 65.3115 277.381 74.8717 277.381 86.664C277.381 89.6459 277.993 92.485 279.097 95.0629L259.628 103.849C257.314 98.591 256.028 92.7776 256.028 86.664C256.028 63.079 275.148 43.959 298.733 43.959Z" fill="#AEDC91"/>
<path d="M435.282 86.1301C435.284 86.3078 435.285 86.4858 435.285 86.664C435.285 110.249 416.285 129.368 392.848 129.368C369.41 129.368 350.41 110.249 350.41 86.664C350.41 63.1686 369.266 44.1049 392.581 43.9604V65.3135C381.181 65.4578 371.762 74.8372 371.762 86.664C371.762 98.5828 381.329 108.016 392.848 108.016C404.367 108.016 413.933 98.5828 413.933 86.664C413.933 86.4855 413.931 86.3075 413.927 86.1301H435.282Z" fill="#AEDC91"/>
<path d="M465.61 84.6072C465.61 95.2646 472.55 104.301 482.158 107.443V129.368C460.655 125.804 444.258 107.121 444.258 84.6072V23.6772L465.61 23.6772V43.7794H482.158V65.1315H465.61V84.6072Z" fill="#AEDC91"/>
</svg>
