<svg width="155" height="43" viewBox="0 0 155 43" fill="none" xmlns="http://www.w3.org/2000/svg">
<path fill-rule="evenodd" clip-rule="evenodd" d="M15.2336 21.6093C10.9113 21.6093 7.40734 25.1133 7.40734 29.4356V42.6534H0.450623V29.4356C0.450623 21.2712 7.06921 14.6526 15.2336 14.6526H17.1467V21.6093H15.2336Z" fill="#103761"/>
<path d="M19.9979 28.8044C19.9979 36.453 26.1983 42.6533 33.8468 42.6533V35.8647C29.9476 35.8647 26.7866 32.7037 26.7866 28.8044C26.7866 24.9052 29.9476 21.7442 33.8468 21.7442C36.46 21.7442 38.7417 23.164 39.9624 25.2743H33.8468V32.1988H47.2767C47.5504 31.1127 47.6957 29.9755 47.6957 28.8044C47.6957 21.1559 41.4953 14.9556 33.8468 14.9556C26.1983 14.9556 19.9979 21.1559 19.9979 28.8044Z" fill="#103761"/>
<path fill-rule="evenodd" clip-rule="evenodd" d="M57.5037 0.739136V28.653C57.5037 32.5431 60.6572 35.6966 64.5473 35.6966C68.4374 35.6966 71.591 32.5431 71.591 28.653C71.591 24.7628 68.4374 21.6093 64.5473 21.6093H62.8081V14.6526H64.5473C72.2795 14.6526 78.5477 20.9208 78.5477 28.653C78.5477 36.3852 72.2795 42.6534 64.5473 42.6534C56.8151 42.6534 50.5469 36.3852 50.5469 28.653V0.739136H57.5037Z" fill="#103761"/>
<path d="M95.3113 35.6964C99.0254 35.6493 102.094 32.5935 102.094 28.7402C102.094 24.8569 98.9773 21.7835 95.2243 21.7835C91.5275 21.7835 88.4481 24.7656 88.3567 28.5663H81.3989C81.4915 20.9623 87.6459 14.8268 95.2243 14.8268C102.86 14.8268 109.051 21.056 109.051 28.7402C109.051 36.3952 102.907 42.6063 95.3113 42.6534V35.6964Z" fill="#103761"/>
<path d="M111.903 28.566C111.902 28.6239 111.902 28.6819 111.902 28.7399C111.902 36.4241 118.092 42.6534 125.729 42.6534C133.365 42.6534 139.555 36.4241 139.555 28.7399C139.555 21.085 133.412 14.8739 125.816 14.8268V21.7838C129.53 21.8308 132.598 24.8867 132.598 28.7399C132.598 32.6232 129.482 35.6967 125.729 35.6967C121.976 35.6967 118.859 32.6232 118.859 28.7399C118.859 28.6818 118.859 28.6238 118.861 28.566H111.903Z" fill="#103761"/>
<path d="M149.363 28.0699C149.363 31.5422 151.624 34.4863 154.754 35.5101V42.6534C147.749 41.4924 142.406 35.405 142.406 28.0699V8.21845L149.363 8.21844V14.7679H154.754V21.7246H149.363V28.0699Z" fill="#103761"/>
</svg>
