<svg class="w-[43px] h-[43px] text-gray-800 dark:text-white" aria-hidden="true" xmlns="http://www.w3.org/2000/svg" fill="none" viewBox="0 0 21 21">
    <path stroke="currentColor" stroke-linecap="round" stroke-linejoin="round" stroke-width="2" d="m6.072 10.072 2 2 6-4m3.586 4.314.9-.9a2 2 0 0 0 0-2.828l-.9-.9a2 2 0 0 1-.586-1.414V5.072a2 2 0 0 0-2-2H13.8a2 2 0 0 1-1.414-.586l-.9-.9a2 2 0 0 0-2.828 0l-.9.9a2 2 0 0 1-1.414.586H5.072a2 2 0 0 0-2 2v1.272a2 2 0 0 1-.586 1.414l-.9.9a2 2 0 0 0 0 2.828l.9.9a2 2 0 0 1 .586 1.414v1.272a2 2 0 0 0 2 2h1.272a2 2 0 0 1 1.414.586l.9.9a2 2 0 0 0 2.828 0l.9-.9a2 2 0 0 1 1.414-.586h1.272a2 2 0 0 0 2-2V13.8a2 2 0 0 1 .586-1.414Z"/>
  </svg>
